<?xml version="1.0" encoding="UTF-8"?>
<svg width="12px" height="12px" viewBox="0 0 12 12" version="1.1" xmlns="http://www.w3.org/2000/svg" xmlns:xlink="http://www.w3.org/1999/xlink">
    <title>问号说明</title>
    <g id="视觉控件" stroke="none" stroke-width="1" fill="none" fill-rule="evenodd">
        <g id="05-表格各操作标准视觉样式" transform="translate(-444.000000, -9495.000000)" fill-rule="nonzero">
            <g id="编组-15" transform="translate(25.000000, 9428.000000)">
                <g id="表格" transform="translate(1.000000, 21.000000)">
                    <g id="问号说明" transform="translate(418.000000, 46.000000)">
                        <path d="M0.00153125,5.7701875 C0.00153125,8.9621875 2.60553125,11.5101875 5.76953125,11.5101875 C8.96153125,11.5101875 11.5095312,8.9061875 11.5095312,5.7421875 C11.5095312,2.5501875 8.90553125,0.0021875 5.74153125,0.0021875 C4.22953125,0.0021875 2.77353125,0.6181875 1.68153125,1.6821875 C0.58953125,2.7461875 -0.02646875,4.2301875 0.00153125,5.7701875 Z" id="路径" fill="#CCCCCC"></path>
                        <path d="M4.98553125,8.8221875 C4.99037024,8.40668111 5.32602486,8.07102649 5.74153125,8.0661875 C5.96553125,8.0661875 6.16153125,8.1501875 6.30153125,8.2901875 C6.58153125,8.5981875 6.58153125,9.0741875 6.27353125,9.3821875 C6.13353125,9.5221875 5.93753125,9.6061875 5.71353125,9.6061875 C5.51753125,9.6061875 5.32153125,9.5221875 5.18153125,9.3821875 C5.06953125,9.2141875 4.98553125,9.0181875 4.98553125,8.8221875 L4.98553125,8.8221875 Z M3.36153125,4.4821875 C3.33353125,4.2581875 3.36153125,4.0341875 3.41753125,3.8101875 C3.75353125,2.7461875 4.78953125,2.0741875 5.90953125,2.1861875 C7.05753125,2.1021875 8.06553125,2.8861875 8.26153125,4.0061875 C8.28953125,5.0141875 7.39353125,5.6581875 6.94553125,6.0501875 C6.60953125,6.3301875 6.38553125,6.6941875 6.27353125,7.0861875 C6.18953125,7.4221875 5.85353125,7.6461875 5.51753125,7.5901875 C5.34953125,7.5901875 5.18153125,7.5061875 5.09753125,7.3381875 C5.04153125,7.1981875 5.01353125,7.0301875 5.01353125,6.8621875 C5.04153125,6.6101875 5.12553125,6.3581875 5.26553125,6.1341875 C5.46153125,5.7701875 5.74153125,5.4341875 6.07753125,5.1821875 C6.88953125,4.4541875 7.02953125,3.9501875 6.58153125,3.5021875 C6.16153125,3.2221875 5.65753125,3.1941875 5.20953125,3.4181875 C4.84553125,3.6141875 4.59353125,3.9221875 4.48153125,4.3141875 C4.36953125,4.5941875 4.28553125,4.9861875 3.66953125,4.8181875 C3.47353125,4.8461875 3.36153125,4.6781875 3.36153125,4.4821875 L3.36153125,4.4821875 Z" id="形状" fill="#5B5B66" opacity="0.98999995"></path>
                    </g>
                </g>
            </g>
        </g>
    </g>
</svg>