<?xml version="1.0" encoding="UTF-8"?>
<svg width="12px" height="12px" viewBox="0 0 12 12" version="1.1" xmlns="http://www.w3.org/2000/svg" xmlns:xlink="http://www.w3.org/1999/xlink">
    <title>编组</title>
    <g id="页面-1" stroke="none" stroke-width="1" fill="none" fill-rule="evenodd">
        <g id="基础资料录入-状态逻辑" transform="translate(-256.000000, -250.000000)" fill="#EA3D46" fill-rule="nonzero">
            <g id="编组-4" transform="translate(250.000000, 246.000000)">
                <g id="编组" transform="translate(6.000000, 4.000000)">
                    <path d="M6,8.11986473 C5.64496376,8.11986473 5.35715003,8.40767847 5.35715003,8.76271471 C5.35715003,9.11775094 5.64496376,9.40556468 6,9.40556468 C6.35503624,9.40556468 6.64284997,9.11775094 6.64284997,8.76271471 C6.64284997,8.40767847 6.35503624,8.11986473 6,8.11986473 L6,8.11986473 Z" id="路径"></path>
                    <path d="M6,0 C2.6920012,0 6.69609375e-05,2.69193424 6.69609375e-05,5.99993304 C6.69609375e-05,9.30793184 2.6920012,11.9998661 6,11.9998661 C9.3079988,11.9998661 11.999933,9.30793184 11.999933,5.99993304 C11.999933,2.69193424 9.3079988,0 6,0 Z M6,11.1388489 C3.16637091,11.1388489 0.861084141,8.83316034 0.861084141,5.99993304 C0.861084141,3.16670573 3.16637091,0.86101718 6,0.86101718 C8.83362909,0.86101718 11.1390498,3.16617002 11.1390498,5.99993304 C11.1390498,8.83369605 8.8332273,11.1388489 6,11.1388489 Z" id="形状"></path>
                    <path d="M5.95875046,7.07938529 C6.09548887,7.07938529 6.22663898,7.02512658 6.3233402,6.92845048 C6.42004142,6.83177438 6.4743697,6.70063837 6.4743697,6.56389996 L6.4743697,2.58626578 C6.4743697,2.30149713 6.2435191,2.07064654 5.95875046,2.07064654 C5.67398181,2.07064654 5.44313121,2.30149713 5.44313121,2.58626578 L5.44313121,6.56389996 C5.44313121,6.70063837 5.49745949,6.83177438 5.59416071,6.92845048 C5.69086193,7.02512658 5.82201205,7.07938529 5.95875046,7.07938529 L5.95875046,7.07938529 Z" id="路径"></path>
                </g>
            </g>
        </g>
    </g>
</svg>