<?xml version="1.0" encoding="UTF-8"?>
<svg width="12px" height="12px" viewBox="0 0 12 12" version="1.1" xmlns="http://www.w3.org/2000/svg" xmlns:xlink="http://www.w3.org/1999/xlink">
    <title>编组</title>
    <g id="页面-1" stroke="none" stroke-width="1" fill="none" fill-rule="evenodd">
        <g id="基础资料录入-状态逻辑" transform="translate(-66.000000, -250.000000)" fill="#596D91" fill-rule="nonzero">
            <g id="已失效" transform="translate(60.000000, 246.000000)">
                <g id="编组" transform="translate(6.000000, 4.000000)">
                    <path d="M6,0 C2.6862915,0 0,2.6862915 0,6 C0,9.3137085 2.6862915,12 6,12 C9.3137085,12 12,9.3137085 12,6 C12,2.6862915 9.3137085,0 6,0 Z M6,1.5 C8.48528137,1.5 10.5,3.51471863 10.5,6 C10.5095076,6.54005569 10.4073744,7.07625516 10.2,7.575 L2.55,3.15 C3.3754084,2.08666446 4.65413167,1.47510115 6,1.5 Z M6,10.5 C3.51471863,10.5 1.5,8.48528137 1.5,6 C1.49027599,5.45992583 1.59241758,4.92368247 1.8,4.425 L9.45,8.85 C8.6245916,9.91333554 7.34586833,10.5248988 6,10.5 L6,10.5 Z" id="形状"></path>
                </g>
            </g>
        </g>
    </g>
</svg>