<?xml version="1.0" encoding="UTF-8"?>
<svg width="12px" height="12px" viewBox="0 0 12 12" version="1.1" xmlns="http://www.w3.org/2000/svg" xmlns:xlink="http://www.w3.org/1999/xlink">
    <title>编组 2</title>
    <g id="页面-1" stroke="none" stroke-width="1" fill="none" fill-rule="evenodd">
        <g id="基础资料录入-状态逻辑" transform="translate(-66.000000, -194.000000)" fill="#00A200" fill-rule="nonzero">
            <g id="编组-4备份" transform="translate(60.000000, 190.000000)">
                <g id="编组-2" transform="translate(6.000000, 4.000000)">
                    <path d="M8.69966452,4.56518191 L6.07096774,7.10308453 C6.00903226,7.1629702 5.92325161,7.2 5.82849032,7.2 C5.73787697,7.20024161 5.65079465,7.16543625 5.5860129,7.10308453 L4.10033548,5.66857146 C4.03622069,5.60703752 4,5.52264885 4,5.43451451 C4,5.25165752 4.15344516,5.10354336 4.3428129,5.10354336 C4.43741935,5.10354336 4.5232,5.1405719 4.58529032,5.20045757 L5.82864516,6.4009137 L8.21470968,4.09691564 C8.27948214,4.03454997 8.36657052,3.99974219 8.4571871,4 C8.64655484,4 8.8,4.1481156 8.8,4.33097259 C8.8,4.42240108 8.7616,4.50514387 8.69966452,4.56518191 L8.69966452,4.56518191 Z" id="路径" stroke="#00A700" stroke-width="0.3"></path>
                    <path d="M11.9497732,5.97525773 C11.9497732,2.67884536 9.27068041,0 5.97501031,0 C2.67859794,0 0,2.67884536 0,5.97525773 C0,9.27068041 2.67859794,11.9500722 5.97501031,11.9500722 C9.27068041,11.9636289 11.9497732,9.28453608 11.9497732,5.97525773 Z M2.52791753,2.53410309 C2.9729602,2.09360273 3.49598237,1.73963568 4.07035052,1.4902268 C4.66896083,1.23833193 5.3119523,1.1088587 5.96140206,1.10944133 C6.61162887,1.10944133 7.25517526,1.24057732 7.85294845,1.4902268 C8.42873286,1.73705025 8.95221248,2.09132688 9.39538144,2.53410309 C9.83839396,2.97751632 10.1929148,3.50123645 10.44,4.07727835 C10.6896495,4.67480412 10.8205361,5.31859794 10.8205361,5.96882474 C10.8205361,6.61905155 10.6896495,7.25542268 10.44,7.85962887 C10.1932251,8.43591341 9.83866855,8.95977029 9.39538144,9.40305155 C8.95202528,9.84553814 8.42858795,10.1997022 7.85294845,10.4466804 C7.25418999,10.6987135 6.61104213,10.8283526 5.96140206,10.8279597 C5.3116701,10.8279597 4.66837113,10.6960825 4.07035052,10.4466804 C3.49460941,10.1998882 2.97113883,9.84570163 2.52791753,9.40305155 C2.08491622,8.95958611 1.73047182,8.43577085 1.48354639,7.85962887 C1.23149495,7.26113625 1.10185307,6.6182269 1.10226705,5.96882474 C1.10226705,5.31859794 1.23389691,4.67480412 1.48354639,4.07727835 C1.73065879,3.50131166 2.08508246,2.97761101 2.52791753,2.53410309 L2.52791753,2.53410309 Z" id="形状"></path>
                </g>
            </g>
        </g>
    </g>
</svg>