<?xml version="1.0" encoding="UTF-8"?>
<svg width="12px" height="12px" viewBox="0 0 12 12" version="1.1" xmlns="http://www.w3.org/2000/svg" xmlns:xlink="http://www.w3.org/1999/xlink">
    <title>编组</title>
    <g id="页面-1" stroke="none" stroke-width="1" fill="none" fill-rule="evenodd">
        <g id="基础资料录入-状态逻辑" transform="translate(-256.000000, -194.000000)" fill="#5C01B2" fill-rule="nonzero">
            <g id="编组-4备份-3" transform="translate(250.000000, 190.000000)">
                <g id="编组" transform="translate(6.000000, 4.000000)">
                    <path d="M5.05610795,6.44683441 C5.51787386,6.45041411 5.88964747,6.82701858 5.88727701,7.28879222 C5.88488378,7.75056585 5.50924496,8.12331514 5.0474667,8.12213397 C4.58568844,8.12094717 4.21195211,7.74627654 4.21195211,7.28449676 C4.21195211,7.06120523 4.30108966,6.84715252 4.45958905,6.68987236 C4.61808844,6.53259219 4.83282313,6.44510347 5.05610795,6.44683441 M5.05610795,5.32345706 C4.12755984,5.32265871 3.32751574,5.97734113 3.1445656,6.88768802 C2.96161545,7.79803492 3.44661933,8.71097022 4.30338353,9.06896091 C5.16014774,9.42695159 6.15049216,9.13047638 6.66960974,8.36059381 C7.18872731,7.59071124 7.09230356,6.56144836 6.43922483,5.90137988 C6.07372492,5.5319681 5.57577616,5.323905 5.05610795,5.32345706 L5.05610795,5.32345706 Z" id="形状"></path>
                    <path d="M6.74441965,1.12215909 C8.60210472,1.12215909 10.108056,2.62811039 10.108056,4.48579546 L10.108056,8.96631493 C10.108056,9.26365927 9.98949881,9.54873137 9.77863607,9.75837525 C9.56777332,9.96801913 9.28201869,10.0849268 8.98467939,10.083217 L2.25091315,10.083217 C1.63407564,10.083217 1.13401113,9.58315244 1.13401113,8.96631493 L1.13401113,2.24553572 C1.13230129,1.94819641 1.24920895,1.66244178 1.45885283,1.45157904 C1.66849671,1.2407163 1.95356882,1.12215909 2.25091315,1.12215909 L6.74441965,1.12215909 M6.74441965,0.00527596875 L2.25091315,0.00527596875 C1.65675932,0.00527596875 1.08694049,0.241302658 0.666810292,0.661432859 C0.246680093,1.08156306 0.0106439861,1.65138189 0.0106439861,2.24553572 L0.0106439861,8.96631493 C0.00892873597,9.5621917 0.243987107,10.1343478 0.664117843,10.556914 C1.08424858,10.9794803 1.65503637,11.217842 2.25091315,11.2195617 L8.97169237,11.2195617 C10.2100085,11.2195617 11.2148667,10.2176129 11.2184456,8.97930195 L11.2184456,4.48579546 C11.2184456,2.01380653 9.21640598,0.00885856428 6.74441965,0.00527596875 L6.74441965,0.00527596875 Z" id="形状"></path>
                    <path d="M5.89377029,1.12215909 L5.89377029,3.36241883 L3.65351055,3.36241883 L3.65351055,1.12215909 L5.89377029,1.12215909 M7.01714692,0.00527596875 L2.53013393,0.00527596875 L2.53013393,3.64163961 C2.53013393,4.10785401 2.90807537,4.48579546 3.37428977,4.48579546 L6.17299107,4.48579546 C6.63920547,4.48579546 7.01714692,4.10785401 7.01714692,3.64163961 L7.01714692,0.00527596875 Z" id="形状"></path>
                </g>
            </g>
        </g>
    </g>
</svg>