<?xml version="1.0" standalone="no"?><!DOCTYPE svg PUBLIC "-//W3C//DTD SVG 1.1//EN" "http://www.w3.org/Graphics/SVG/1.1/DTD/svg11.dtd"><svg t="1616395629751" class="icon" viewBox="0 0 1024 1024" version="1.1" xmlns="http://www.w3.org/2000/svg" p-id="9401" xmlns:xlink="http://www.w3.org/1999/xlink" width="200" height="200"><defs><style type="text/css"></style></defs><path d="M512 0C227.84 0 0 227.84 0 512s227.84 512 512 512 512-227.84 512-512-227.84-512-512-512z" fill="#1677FF" p-id="9402"></path><path d="M726.016 726.016a36.790857 36.790857 0 0 1-51.2 0L512 563.2 349.184 726.016a36.790857 36.790857 0 0 1-51.2 0 36.790857 36.790857 0 0 1 0-51.2L460.8 512 297.984 349.184a36.790857 36.790857 0 0 1 0-51.2 36.790857 36.790857 0 0 1 51.2 0L512 460.8l162.816-162.816a36.790857 36.790857 0 0 1 51.2 0 36.790857 36.790857 0 0 1 0 51.2L563.2 512l162.816 162.816c18.944 13.824 18.944 39.424 0 51.2z" fill="#FFFFFF" p-id="9403"></path></svg>