<?xml version="1.0" encoding="UTF-8"?>
<svg width="15px" height="16px" viewBox="0 0 15 16" version="1.1" xmlns="http://www.w3.org/2000/svg" xmlns:xlink="http://www.w3.org/1999/xlink">
    <title>编组</title>
    <g id="迭代6" stroke="none" stroke-width="1" fill="none" fill-rule="evenodd">
        <g id="01卡片状态集合" transform="translate(-1007.000000, -270.000000)" fill="#FFFFFF" fill-rule="nonzero">
            <g id="紧急" transform="translate(982.000000, 228.000000)">
                <g id="编组" transform="translate(25.000000, 42.000000)">
                    <path d="M14.175,14.175 C14.2875,14.175 14.4,14.2875 14.4,14.4 L14.4,15.4125 C14.4,15.525 14.2875,15.6375 14.175,15.6375 L0.45,15.6375 C0.3375,15.6375 0.225,15.525 0.225,15.4125 L0.225,14.4 C0.225,14.2875 0.3375,14.175 0.45,14.175 L2.25,14.175 L2.25,8.4375 C2.25,5.5125 4.5,3.15 7.3125,3.15 C10.125,3.15 12.375,5.5125 12.375,8.4375 L12.375,14.175 L14.175,14.175 Z M9.3375,7.65 L7.65,7.65 L7.9875,5.5125 C7.9875,5.4 7.9875,5.4 7.875,5.4 L7.7625,5.4 L5.175,8.4375 L5.175,8.6625 L6.8625,8.6625 L6.525,10.8 C6.525,10.9125 6.525,10.9125 6.6375,10.9125 L6.75,10.9125 L9.45,7.875 C9.45,7.7625 9.45,7.65 9.3375,7.65 Z M6.75,0 L7.7625,0 C7.875,0 7.9875,0.1125 7.9875,0.225 L7.9875,1.8 C7.9875,1.9125 7.875,2.025 7.7625,2.025 L6.75,2.025 C6.6375,2.025 6.525,1.9125 6.525,1.8 L6.525,0.225 C6.525,0.1125 6.6375,0 6.75,0 Z M2.8125,1.35 L3.7125,0.7875 C3.825,0.675 3.9375,0.7875 4.05,0.9 L4.8375,2.25 C4.95,2.3625 4.8375,2.5875 4.725,2.5875 L3.825,3.2625 C3.7125,3.375 3.6,3.2625 3.4875,3.15 L2.7,1.8 C2.5875,1.575 2.7,1.4625 2.8125,1.35 Z M0,4.6125 L0.5625,3.7125 C0.5625,3.6 0.7875,3.6 0.9,3.6 L2.25,4.3875 C2.3625,4.5 2.3625,4.6125 2.3625,4.725 L1.8,5.7375 C1.6875,5.85 1.575,5.85 1.4625,5.85 L0.1125,5.0625 C0,4.95 0,4.725 0,4.6125 Z M12.375,4.3875 L13.725,3.6 C13.8375,3.4875 13.95,3.6 14.0625,3.7125 L14.5125,4.6125 C14.625,4.725 14.5125,4.95 14.4,4.95 L13.05,5.7375 C12.9375,5.85 12.825,5.7375 12.7125,5.625 L12.2625,4.725 C12.2625,4.725 12.2625,4.5 12.375,4.3875 Z M9.7875,2.3625 L10.575,1.0125 C10.6875,0.9 10.8,0.9 10.9125,0.9 L11.8125,1.35 C11.925,1.4625 11.925,1.575 11.925,1.6875 L11.1375,3.0375 C11.025,3.15 10.9125,3.15 10.8,3.15 L9.9,2.5875 C9.7875,2.5875 9.675,2.475 9.7875,2.3625 L9.7875,2.3625 Z" id="形状"></path>
                </g>
            </g>
        </g>
    </g>
</svg>