<?xml version="1.0" encoding="UTF-8"?>
<svg width="16px" height="16px" viewBox="0 0 16 16" version="1.1" xmlns="http://www.w3.org/2000/svg" xmlns:xlink="http://www.w3.org/1999/xlink">
    <title>星形</title>
    <g id="迭代6" stroke="none" stroke-width="1" fill="none" fill-rule="evenodd">
        <g id="01卡片状态集合" transform="translate(-942.000000, -232.000000)" fill="#FFFFFF">
            <g id="重要" transform="translate(932.000000, 228.000000)">
                <path d="M18,17.6399972 L14.0006733,19.6367289 C13.6300808,19.8217534 13.1796642,19.6713209 12.9946396,19.3007284 C12.9257622,19.1627713 12.9010805,19.0069371 12.9239557,18.8544477 L13.5871004,14.433838 L13.5871004,14.433838 L10.4522359,11.2472763 C10.1617477,10.9519976 10.1656311,10.4771398 10.4609097,10.1866516 C10.5708305,10.0785141 10.7114105,10.006885 10.8635054,9.98151884 L15.2726781,9.2461634 L15.2726781,9.2461634 L17.3345519,5.2800283 C17.5256128,4.91251149 17.9784295,4.7694657 18.3459464,4.96052659 C18.4827586,5.03165114 18.5943235,5.14321608 18.6654481,5.2800283 L20.7273219,9.2461634 L20.7273219,9.2461634 L25.1364946,9.98151884 C25.545065,10.0496596 25.8210376,10.4361103 25.7528969,10.8446806 C25.7275307,10.9967755 25.6559016,11.1373555 25.5477641,11.2472763 L22.4128996,14.433838 L22.4128996,14.433838 L23.0760443,18.8544477 C23.1374938,19.2640779 22.8552376,19.6459633 22.4456074,19.7074128 C22.2931181,19.730288 22.1372839,19.7056063 21.9993267,19.6367289 L18,17.6399972 L18,17.6399972 Z" id="星形"></path>
            </g>
        </g>
    </g>
</svg>