<?xml version="1.0" encoding="UTF-8"?>
<svg width="12px" height="14px" viewBox="0 0 12 14" version="1.1" xmlns="http://www.w3.org/2000/svg" xmlns:xlink="http://www.w3.org/1999/xlink">
    <title>小紧急</title>
    <defs>
        <linearGradient x1="50%" y1="100%" x2="50%" y2="0%" id="linearGradient-1">
            <stop stop-color="#FF7410" offset="0%"></stop>
            <stop stop-color="#FFA229" offset="100%"></stop>
        </linearGradient>
    </defs>
    <g id="视觉控件" stroke="none" stroke-width="1" fill="none" fill-rule="evenodd">
        <g id="05-表格各操作标准视觉样式" transform="translate(-48.000000, -869.000000)">
            <g id="表格" transform="translate(24.000000, 814.000000)">
                <g id="编组-16" transform="translate(24.000000, 13.000000)">
                    <g id="小紧急" transform="translate(0.000000, 43.000000)">
                        <rect id="矩形" x="0" y="1" width="12" height="12"></rect>
                        <g id="编组" fill="url(#linearGradient-1)" fill-rule="nonzero">
                            <path d="M11.657375,10.7965078 C11.7732524,10.7965078 11.8669692,10.8863672 11.8669692,10.997168 L11.8669692,11.7994922 C11.8669692,11.9101406 11.7731045,12 11.657375,12 L0.34290995,12 C0.287116032,11.9998883 0.233658132,11.9786772 0.194315693,11.9410405 C0.154973254,11.9034038 0.132974888,11.8524301 0.133166675,11.7993516 L0.133166675,10.9970273 C0.133166675,10.8863672 0.22703263,10.7965195 0.342762132,10.7965195 L1.80949037,10.7965195 L1.80949037,6.38370703 C1.80949037,4.16817188 3.68557708,2.37208594 6.00006858,2.37208594 C8.31456008,2.37208594 10.1906468,4.16817188 10.1906468,6.38370703 L10.1906468,10.7964961 L11.657375,10.7964961 L11.657375,10.7965078 Z M5.70672293,0 L6.14674141,0 C6.26343829,0 6.37535558,0.0441017149 6.45787274,0.122603271 C6.5403899,0.201104827 6.58674756,0.307575785 6.58674756,0.41859375 L6.58674756,1.11628125 C6.58674756,1.22729922 6.5403899,1.33377017 6.45787274,1.41227173 C6.37535558,1.49077329 6.26343829,1.534875 6.14674141,1.534875 L5.70672293,1.534875 C5.46371424,1.534875 5.26671678,1.34746419 5.26671678,1.11628125 L5.26671678,0.41859375 C5.26671678,0.187415382 5.46370674,0 5.70671061,0 L5.70672293,0 Z M2.4219883,0.939070312 L2.7367553,0.766605469 C2.9470366,0.651367626 3.21569029,0.719851542 3.33723067,0.919675781 L3.72575906,1.55832422 C3.78427443,1.6545519 3.80015016,1.76897122 3.76988494,1.8763475 C3.73961971,1.98372379 3.66569968,2.07523657 3.56442757,2.13070312 L3.24982071,2.30316797 C3.03953666,2.41841378 2.77087375,2.34992891 2.64933303,2.15009766 L2.26080464,1.5114375 C2.20229318,1.41521087 2.18641964,1.30079439 2.21668468,1.19342094 C2.24694973,1.08604748 2.32086736,0.994536828 2.42213612,0.939070312 L2.4219883,0.939070312 Z M0.0589507715,3.31395703 L0.240237742,3.01450781 C0.298566305,2.91819105 0.394768958,2.84790038 0.507632775,2.81913508 C0.620496592,2.79036977 0.740752344,2.80549225 0.841883334,2.86116797 L1.51321299,3.23078906 C1.72325888,3.34641481 1.79524597,3.60199477 1.67411334,3.80204297 L1.49282637,4.10149219 C1.43449777,4.19781213 1.33829287,4.26810509 1.22542608,4.29687056 C1.11255929,4.32563604 0.992300555,4.31051148 0.891168458,4.25483203 L0.2197033,3.88533984 C0.00966479233,3.76971443 -0.0623213019,3.51414323 0.058802953,3.31409766 L0.0589507715,3.31395703 Z M10.4869242,3.23078906 L11.1582538,2.86116797 C11.2594028,2.80550391 11.379672,2.79040283 11.492538,2.81919507 C11.6054039,2.8479873 11.7015956,2.91830781 11.7598994,3.01464844 L11.9411864,3.31394531 C12.0623274,3.51399612 11.9903393,3.76958485 11.780286,3.88521094 L11.1089687,4.25483203 C11.0078187,4.31049982 10.8875464,4.32560298 10.7746775,4.29681058 C10.6618086,4.26801817 10.5656146,4.19769538 10.5073108,4.10135156 L10.3260238,3.80205469 C10.2048828,3.60200388 10.2768709,3.34641515 10.4869242,3.23078906 L10.4869242,3.23078906 Z M9.26338186,0.766605469 L9.57814886,0.939070313 C9.67939253,0.994560382 9.75327879,1.08608144 9.78351553,1.19345287 C9.81375228,1.30082429 9.79785624,1.41522794 9.73933253,1.5114375 L9.35080414,2.15009766 C9.22926376,2.3499219 8.96061007,2.41840581 8.75032877,2.30316797 L8.43556177,2.13070313 C8.33431476,2.07521302 8.26042609,1.98368983 8.23018917,1.87631557 C8.19995225,1.76894131 8.21585048,1.65453484 8.27437811,1.55832422 L8.66289418,0.9196875 C8.78443455,0.719863261 9.05308825,0.651379345 9.26336954,0.766617188 L9.26338186,0.766605469 Z M7.65643553,6.22980469 L6.32847183,6.22980469 L6.57722559,4.57603125 C6.58238519,4.53298018 6.55766375,4.49170286 6.51610345,4.47397578 C6.47454315,4.4562487 6.42570218,4.4661488 6.39534735,4.49845312 L4.26419996,6.86274609 C4.23827141,6.89229025 4.23258025,6.93341131 4.24958667,6.96833339 C4.26659309,7.00325548 4.30324624,7.02571378 4.34370163,7.026 L5.67166533,7.026 L5.42291157,8.67976172 C5.41775197,8.72281279 5.44247341,8.76409011 5.48403371,8.78181719 C5.52559401,8.79954427 5.57443498,8.78964417 5.60478982,8.75733984 L7.7359372,6.39307031 C7.76186575,6.36352616 7.76755691,6.3224051 7.75055049,6.28748302 C7.73354407,6.25256093 7.69689093,6.23010262 7.65643553,6.22981641 L7.65643553,6.22980469 Z" id="形状"></path>
                        </g>
                    </g>
                </g>
            </g>
        </g>
    </g>
</svg>